<svg xmlns="http://www.w3.org/2000/svg" width="50" height="50" viewBox="0 0 50 50">
  <g fill="none" fill-rule="evenodd">
    <rect width="50" height="50" fill="#FFF" fill-rule="nonzero"/>
    <g fill="#1B75BB" transform="translate(10 8)">
      <path d="M30.6853,18.9937 L1.8433,18.9937 C0.9853,18.9937 0.2903,18.2987 0.2903,17.4407 C0.2903,16.5827 0.9853,15.8877 1.8433,15.8877 L30.6853,15.8877 C31.5423,15.8877 32.2383,16.5827 32.2383,17.4407 C32.2383,18.2987 31.5423,18.9937 30.6853,18.9937"/>
      <path d="M17.636,3.6221 L2.889,18.3691 C2.283,18.9761 1.3,18.9761 0.693,18.3691 C0.087,17.7631 0.087,16.7791 0.693,16.1731 L15.44,1.4261 C16.046,0.8191 17.03,0.8191 17.636,1.4261 C18.242,2.0321 18.242,3.0161 17.636,3.6221"/>
      <path d="M15.4397,33.4556 L0.6927,18.7086 C0.0867,18.1026 0.0867,17.1196 0.6927,16.5126 C1.2997,15.9066 2.2827,15.9066 2.8897,16.5126 L17.6357,31.2596 C18.2427,31.8656 18.2427,32.8496 17.6357,33.4556 C17.0297,34.0616 16.0457,34.0616 15.4397,33.4556"/>
    </g>
  </g>
</svg>
