<svg xmlns="http://www.w3.org/2000/svg" width="58" height="58" viewBox="0 0 58 58">
  <title>Sandoz corner button</title>
  <g id="Layer_2" data-name="Layer 2">
    <g id="Header_NOVARTIS" data-name="Header NOVARTIS">
      <g>
        <polygon points="0 58 0 0 58 0 0 58" fill="#0661aa"/>
        <path d="M7.63,44.93a6,6,0,0,1-2.31,1.33l-.71-1.82a2.75,2.75,0,0,0,1.62-.64c.12-.12.33-.39.14-.57s-.41-.06-.72.11C5,43.71,4,44.4,2.86,43.28s-.69-2.43.32-3.45a4,4,0,0,1,2-1l.64,1.64a2.1,2.1,0,0,0-1.21.48c-.25.26-.34.48-.18.64s.47,0,.67-.13c.69-.37,1.74-1.06,2.85.06s.73,2.42-.3,3.45m4.82-5.09-.7-.44-1.22,1.22.41.74-1.7,1.69L6.3,37l1.84-1.84,6,3Zm-3.8-2.3,1,1.8.78-.78Zm8.57-2.46-3.56-.84,2.2,2.19L14.3,38,9.78,33.48l1.57-1.56,3.57.86L12.7,30.56,14.26,29l4.51,4.52ZM21,31.24l-.51.53L19.28,33,14.77,28.5,16,27.32l.52-.51c1.47-1.47,3.12-2.07,4.86-.33s1.17,3.29-.3,4.76M17.93,28l-.19.19L19.56,30l.18-.18a1.08,1.08,0,0,0,0-1.73A1.17,1.17,0,0,0,17.93,28m8.4-1.81a3.38,3.38,0,1,1-4.79-4.77,3.35,3.35,0,0,1,4.9-.11,3.21,3.21,0,0,1-.11,4.88m-3.26-3.29a1.26,1.26,0,0,0,1.77,1.78,1.26,1.26,0,0,0-1.77-1.78m6.71-3.12,1.68-1.68,1.35,1.35-4.33,4.33-1.23-5.1-1.52,1.52-1.35-1.35,4.13-4.14ZM32.09,14l-.75.75.36.76-.27.27-1.21-2.61.29-.3,2.61,1.21-.28.29Zm-.89.48.61-.61-.71-.36c-.25-.12-.52-.29-.52-.29h0s.17.29.29.53Zm1-3.34.28-.28,2,.42c.23.05.59.16.59.16h0s-.27-.23-.43-.39L33.51,9.85l.24-.25,1.91,1.91-.27.27-2-.41c-.23,0-.59-.16-.59-.16h0s.27.24.42.39l1.17,1.17-.24.25Zm3.07-.63a1,1,0,1,1,1.35-1.34,1,1,0,1,1-1.35,1.34Zm1.11-1.1a.67.67,0,0,0-1-.1c-.28.28-.19.66.11,1s.68.39,1,.1A.65.65,0,0,0,36.42,9.38ZM36.1,8.32l.25-.25,1,.5.56.31h0s-.2-.32-.32-.56l-.5-1,.25-.25L38.22,9,38,9.22ZM38.49,8c-.33-.32-.16-.63.15-1,.18-.22.28-.39.14-.53s-.35-.13-.54.06-.22.42-.06.59L38,7.29a.69.69,0,0,1,.12-1,1,1,0,0,1,.4-.26.59.59,0,0,1,.56.19l.65.65c.11.11.19.14.29,0h0l.17.16a.48.48,0,0,1-.11.15.31.31,0,0,1-.46,0h0a.8.8,0,0,1-.23.7C39.08,8.15,38.75,8.23,38.49,8Zm.78-1.07L39,6.66a1.24,1.24,0,0,1-.2.4c-.19.27-.3.46-.11.65s.36.08.5-.06A.53.53,0,0,0,39.27,6.89Zm1.13-.12L39,5.4l.24-.24.25.25h0a.64.64,0,0,1,.15-.67.25.25,0,0,1,.1-.08l.22.23h0a.28.28,0,0,0-.11.08.56.56,0,0,0,0,.82l.75.75Zm1.48-1.45c-.19.18-.39.23-.59,0l-.93-.93-.21.22L40,4.46l.22-.22-.44-.43L40,3.57l.43.43.29-.28.18.18-.28.29.87.87c.1.1.18.07.27,0a.94.94,0,0,0,.1-.14h0l.2.2A1.84,1.84,0,0,1,41.88,5.32Zm-1-2.55a.21.21,0,0,1,0,.29.22.22,0,0,1-.3,0,.21.21,0,0,1,0-.29A.2.2,0,0,1,40.88,2.77Zm.12.65.24-.24,1.38,1.38-.24.24Zm1.49.43.24-.24c.23.17.45.08.65-.12s.22-.4.09-.53-.3-.07-.6.12-.62.4-.93.1-.2-.57.12-.89.69-.36.95-.15l-.23.24c-.17-.12-.34-.1-.54.1s-.18.35-.08.46.31,0,.59-.15.63-.4,1-.08.19.66-.13,1S42.79,4.11,42.49,3.85ZM32.23,16.25l.71-.7a1.19,1.19,0,0,1,1.82.11,1.18,1.18,0,0,1,.07,1.82l-.68.69Zm2.36,1c.44-.43.33-.89-.11-1.33s-.89-.57-1.32-.14l-.43.43,1.45,1.45Zm-.05-3a.19.19,0,0,1,0,.29.21.21,0,0,1-.29,0,.21.21,0,1,1,.29-.29Zm.12.65.24-.24L36.28,16l-.24.24Zm.47-.47.26-.25,1,.5.57.31h0s-.19-.31-.32-.56l-.5-1,.25-.25.89,1.88-.27.26Zm1.35-2.12a.21.21,0,0,1,0,.29.2.2,0,0,1-.3,0,.21.21,0,0,1,0-.29A.22.22,0,0,1,36.48,12.3Zm.12.65.24-.24,1.38,1.38-.24.24Zm1.49.43.24-.24c.23.17.45.08.65-.11s.22-.41.09-.53-.3-.08-.6.12-.62.4-.92.1-.21-.57.12-.89a.66.66,0,0,1,.95-.15l-.24.24c-.16-.13-.34-.11-.54.09s-.18.35-.07.46.3,0,.58-.15.63-.39.95-.07.19.65-.13,1S38.39,13.64,38.09,13.38Zm.4-3.09a.21.21,0,0,1,0,.29.2.2,0,0,1-.3,0,.21.21,0,0,1,0-.29A.22.22,0,0,1,38.49,10.29Zm.12.65.24-.24,1.38,1.38-.24.24Zm1.24.15a1,1,0,0,1-.05-1.4.94.94,0,0,1,1.39.05,1,1,0,1,1-1.34,1.35ZM41,10a.66.66,0,0,0-1-.11.65.65,0,0,0,.11,1c.3.3.68.39,1,.11A.65.65,0,0,0,41,10Zm1.47-.1-.23.24L40.81,8.75,41,8.51l.2.2h0a.72.72,0,0,1,.2-.67.6.6,0,0,1,.92,0l1,1-.24.24-.93-.94a.37.37,0,0,0-.58,0,.51.51,0,0,0,0,.74Z" fill="#fff"/>
      </g>
    </g>
  </g>
</svg>
