<svg xmlns="http://www.w3.org/2000/svg" width="58" height="58" viewBox="0 0 58 58">
  <title>Novartis corner button</title>
  <g id="Layer_2" data-name="Layer 2">
    <g id="header_SANDOZ" data-name="header SANDOZ">
      <g>
        <polygon points="0 58 0 0 58 0 0 58" fill="#e64c25"/>
        <g id="novartis_logo_corner" data-name="novartis logo corner">
          <g>
            <g>
              <path d="M7.09,39l0,0a2.25,2.25,0,0,1,2.31.64,2.52,2.52,0,0,1-.13,3.58c-1.42,1.41-2.73,1.07-3.49.31-1-1-.94-2.3-1.82-3.18a2,2,0,0,0-2.43-.25v.07a1.57,1.57,0,0,1,1.18.48c1,1,.83,2.44,1.93,3.54s2.75,1.33,4.8-.71c1.82-1.83,1.89-3.68.94-4.63A2.35,2.35,0,0,0,7.09,39Z" fill="#fff"/>
              <polygon points="8.14 42.09 3.76 36.69 2.68 37.76 8.09 42.14 8.14 42.09" fill="#fff"/>
            </g>
            <path d="M18.4,34.23l-5.55-.7,2.82,2.82.61-.38.13.13-1.13,1.13-.13-.13.29-.52-3.07-3.07a1.1,1.1,0,0,0-.55.15l-.14.09-.13-.13,1-1,4.77.62-2.44-2.44-.62.37-.13-.13L15.22,30l.13.13-.28.53,2.79,2.79c.26.26.66.62.71.66Zm3.08-7.06a2.69,2.69,0,0,1,.15,3.94,2.76,2.76,0,0,1-3.9-3.89A2.6,2.6,0,0,1,21.48,27.17ZM21,28c-.95-.95-2.44-1.3-3.21-.53s-.4,2,.45,2.84,2.38,1.44,3.26.56S21.88,28.83,21,28Zm-.26-3.09-.51.26L20.14,25l1.49-1.49.13.14-.35.58L25.24,26h0L23.47,22.2l-.58.35-.13-.14,1.1-1.1.13.14-.26.5,2.18,4.79-.33.33Zm10.33-7.25-.23.24-1.61-1.61c.79-.78,1.42-1.06,2.06-.42A1.22,1.22,0,0,1,31.11,17.65Zm8.4-4.91.4-.64L36.74,8.93l-.63.4L36,9.2l1.62-1.62.13.13-.39.64,3.17,3.17.63-.4.13.13-1.61,1.62Zm1.73-3.49.1-.1,1.13.45a2.14,2.14,0,0,0,.82-.49,1.09,1.09,0,0,0,.13-1.58,1.23,1.23,0,0,0-1.35-.16l-.55.18a1.87,1.87,0,0,1-1.94-.19C39,6.8,39,6,39.8,5.14a4.56,4.56,0,0,1,1-.72l.94.77-.11.11-1-.37a1.51,1.51,0,0,0-.67.4.9.9,0,0,0-.09,1.32c.33.33.75.31,1.31.14l.66-.21c.89-.29,1.46-.28,2,.24a1.68,1.68,0,0,1-.31,2.41,4.62,4.62,0,0,1-1.2.89ZM27.15,25.1l.3-.53-2.14-4.71.32-.54,4.85,2.21.54-.3.13.14-1.57,1.57-.14-.13.42-.66-1.39-.64-1.41,1.42.64,1.38.65-.41.13.13-1.2,1.2Zm-.27-2.54,1.22-1.22-2.24-1h0ZM31.93,17a1.43,1.43,0,0,0-.05-1.77c-.56-.55-1.41-.55-2.45.49-.65.64-1.28,1.31-1.36,1.39l.13.13.55-.3,3.17,3.17-.31.54.13.13,1.51-1.5-.13-.14-.62.38-1.43-1.43.42-.43,2.78.6,1-1-.12-.13-.62.37Zm1.5-4.86,3.23,3.22-.4.64.14.13L38,14.5l-.13-.13-.63.4L34,11.54l.87-.87.9.33.11-.12L35,10.16l-3,3,.73.89.11-.11-.33-.9Z" fill="#fff"/>
          </g>
        </g>
      </g>
    </g>
  </g>
</svg>
