<svg xmlns="http://www.w3.org/2000/svg" xmlns:xlink="http://www.w3.org/1999/xlink" width="50" height="50" viewBox="0 0 50 50">
  <defs>
    <polygon id="next-a" points=".933 .59 18.786 .59 18.786 18.443 .933 18.443"/>
    <polygon id="next-c" points=".933 .677 18.786 .677 18.786 18.529 .933 18.529"/>
  </defs>
  <g fill="none" fill-rule="evenodd">
    <rect width="50" height="50" fill="#FFF" fill-rule="nonzero"/>
    <g transform="translate(8 8)">
      <path fill="#1B75BB" d="M2.3392,18.9937 L31.1812,18.9937 C32.0392,18.9937 32.7342,18.2987 32.7342,17.4407 C32.7342,16.5827 32.0392,15.8877 31.1812,15.8877 L2.3392,15.8877 C1.4812,15.8877 0.7862,16.5827 0.7862,17.4407 C0.7862,18.2987 1.4812,18.9937 2.3392,18.9937"/>
      <g transform="translate(14 .38)">
        <mask id="next-b" fill="#fff">
          <use xlink:href="#next-a"/>
        </mask>
        <path fill="#1B75BB" d="M1.388,3.2412 L16.135,17.9882 C16.742,18.5952 17.724,18.5952 18.331,17.9882 C18.938,17.3822 18.938,16.3982 18.331,15.7922 L3.584,1.0452 C2.978,0.4382 1.994,0.4382 1.388,1.0452 C0.782,1.6512 0.782,2.6352 1.388,3.2412" mask="url(#next-b)"/>
      </g>
      <g transform="translate(14 15.38)">
        <mask id="next-d" fill="#fff">
          <use xlink:href="#next-c"/>
        </mask>
        <path fill="#1B75BB" d="M3.5843,18.0747 L18.3313,3.3277 C18.9383,2.7217 18.9383,1.7387 18.3313,1.1317 C17.7243,0.5257 16.7413,0.5257 16.1343,1.1317 L1.3883,15.8787 C0.7813,16.4847 0.7813,17.4687 1.3883,18.0747 C1.9943,18.6807 2.9783,18.6807 3.5843,18.0747" mask="url(#next-d)"/>
      </g>
    </g>
  </g>
</svg>
