<svg xmlns="http://www.w3.org/2000/svg" xmlns:xlink="http://www.w3.org/1999/xlink" width="243" height="40" viewBox="0 0 243 40">
  <defs>
    <path id="novartis-a" d="M2.903,0.497 C4.554,2.247 5.105,3.949 5.105,5.752 C5.105,11.808 0,16.112 0,23.069 C0,29.477 4.48,36 17.437,36 C28.988,36 35.079,30.346 35.079,24.321 C35.079,19.165 31.375,14.797 24.225,14.109 L24.125,14.36 C25.771,15.082 29.451,17.946 29.451,23.707 C29.451,29.13 24.874,34.604 17.687,34.604 C8.739,34.604 5.656,29.377 5.656,24.571 C5.656,18.416 9.96,14.311 9.96,8.705 C9.96,4.8 7.007,0.946 3.054,0.246 L2.903,0.497 Z"/>
    <linearGradient id="novartis-b" x1="2.956%" x2="96.242%" y1="50%" y2="50%">
      <stop offset="0%" stop-color="#E64C25"/>
      <stop offset="32.555%" stop-color="#E75C25"/>
      <stop offset="49.506%" stop-color="#E97124"/>
      <stop offset="68.364%" stop-color="#EA8623"/>
      <stop offset="100%" stop-color="#EB9B23"/>
    </linearGradient>
    <polygon id="novartis-d" points=".034 .392 6.841 .392 6.841 31.374 .034 31.374"/>
    <polygon id="novartis-f" points=".224 .635 187.23 .635 187.23 25.324 .224 25.324"/>
  </defs>
  <g fill="none" fill-rule="evenodd" transform="translate(0 -1)">
    <g transform="translate(0 4.608)">
      <mask id="novartis-c" fill="#fff">
        <use xlink:href="#novartis-a"/>
      </mask>
      <path fill="url(#novartis-b)" d="M2.903,0.497 C4.554,2.247 5.105,3.949 5.105,5.752 C5.105,11.808 0,16.112 0,23.069 C0,29.477 4.48,36 17.437,36 C28.988,36 35.079,30.346 35.079,24.321 C35.079,19.165 31.375,14.797 24.225,14.109 L24.125,14.36 C25.771,15.082 29.451,17.946 29.451,23.707 C29.451,29.13 24.874,34.604 17.687,34.604 C8.739,34.604 5.656,29.377 5.656,24.571 C5.656,18.416 9.96,14.311 9.96,8.705 C9.96,4.8 7.007,0.946 3.054,0.246 L2.903,0.497 Z" mask="url(#novartis-c)"/>
    </g>
    <g transform="translate(14 .608)">
      <mask id="novartis-e" fill="#fff">
        <use xlink:href="#novartis-d"/>
      </mask>
      <polygon fill="#0661AA" points="3.588 31.374 6.841 .391 .034 .391 3.288 31.374" mask="url(#novartis-e)"/>
      <g transform="translate(41 14)">
        <mask id="novartis-g" fill="#fff">
          <use xlink:href="#novartis-f"/>
        </mask>
        <path fill="#0661AA" d="M137.5415,2.578 L137.5415,23.016 L134.2845,23.766 L134.2845,24.606 L144.5105,24.606 L144.5105,23.766 L141.2535,23.016 L141.2535,2.578 L146.7695,2.578 L148.5835,6.459 L149.2845,6.459 L148.7595,1.353 L130.0365,1.353 L129.5115,6.459 L130.2125,6.459 L132.0205,2.578 L137.5415,2.578 Z M117.3925,13.237 C118.1925,13.031 122.8105,11.857 122.8105,7.461 C122.8105,3.958 120.1275,1.246 113.5235,1.246 C109.4415,1.246 105.3105,1.339 104.8095,1.351 L104.8095,2.19 L107.5065,2.946 L107.5065,23.013 L104.8095,23.765 L104.8095,24.605 L114.3525,24.605 L114.3525,23.766 L111.2185,23.014 L111.2185,13.942 L113.9155,13.942 L120.8135,24.605 L126.9185,24.605 L126.9185,23.8 L123.8285,23.015 L117.3925,13.237 Z M83.7675,14.87 L91.5005,14.87 L87.6615,4.504 L87.6265,4.504 L83.7675,14.87 Z M76.5675,23.765 L79.2025,23.016 L87.3265,1.349 L90.0425,0.652 L98.4335,23.015 L101.0665,23.765 L101.0665,24.606 L91.1075,24.606 L91.1075,23.765 L94.4755,23.015 L92.0975,16.586 L83.1625,16.586 L80.7985,23.016 L84.1695,23.765 L84.1695,24.606 L76.5675,24.606 L76.5675,23.765 Z M171.3505,18.203 L171.9945,18.203 L174.1685,23.205 C174.8185,23.53 176.4445,24.239 178.3275,24.239 C181.1445,24.239 183.7235,22.559 183.7235,19.661 C183.7235,17.432 182.2835,16.1 179.9405,14.883 C179.1915,14.494 178.4125,14.089 177.6305,13.682 C174.8635,12.244 172.1045,10.212 172.1045,6.941 C172.1045,3.387 174.6045,0.635 179.8325,0.635 C182.5225,0.635 184.8225,1.381 185.2755,1.532 L185.8245,6.912 L185.1245,6.912 L183.1115,2.598 C182.7375,2.407 181.5285,1.719 179.7455,1.719 C177.0835,1.719 175.2655,3.361 175.2655,5.631 C175.2655,7.693 176.6345,8.986 178.9775,10.199 C179.8445,10.648 180.8085,11.152 181.7195,11.623 C185.4565,13.559 187.2305,15.351 187.2305,18.675 C187.2305,22.778 183.3865,25.324 178.6085,25.324 C174.9535,25.324 172.7155,24.568 171.9725,24.335 L171.3505,18.203 Z M154.8635,23.766 L158.1205,23.016 L158.1205,2.944 L154.8635,2.193 L154.8635,1.353 L165.0905,1.353 L165.0905,2.192 L161.8325,2.944 L161.8325,23.016 L165.0915,23.766 L165.0915,24.606 L154.8635,24.606 L154.8635,23.766 Z M112.7115,12.733 L111.2185,12.733 L111.2185,2.577 C116.1765,2.577 119.0635,3.704 119.0635,7.725 C119.0635,10.711 116.4825,12.733 112.7115,12.733 Z M57.0475,2.945 L54.6015,2.193 L54.6015,1.353 L64.0225,1.353 L64.0225,2.193 L61.0735,2.944 L67.5785,20.671 L67.6135,20.671 L74.1185,2.945 L71.1685,2.193 L71.1685,1.353 L78.1385,1.353 L78.1385,2.193 L75.7135,2.945 L67.4685,25.026 L65.3815,25.026 L57.0475,2.945 Z M48.0905,13.592 C48.0905,7.569 44.4845,1.72 39.5815,1.72 C34.3635,1.72 32.0175,6.764 32.0175,12.157 C32.0175,17.515 34.9945,24.239 40.5965,24.239 C45.8495,24.239 48.0905,18.915 48.0905,13.592 Z M52.0835,12.367 C52.0835,20.597 46.3755,25.324 40.0715,25.324 C33.6985,25.324 28.0595,20.491 28.0595,12.997 C28.0595,5.432 33.7685,0.635 40.0365,0.635 C47.7415,0.635 52.0835,6.623 52.0835,12.367 Z M19.9755,24.974 L4.6185,5.17 L4.6185,23.016 L7.7525,23.766 L7.7525,24.606 L0.6085,24.606 L0.6085,23.766 L3.1655,23.016 L3.1655,3.576 C2.9125,3.338 1.9515,2.542 0.9575,2.328 C0.6485,2.26 0.2235,2.192 0.2235,2.192 L0.2235,1.353 L6.2815,1.353 L19.4325,18.407 L19.4325,2.946 L16.3015,2.193 L16.3015,1.353 L23.4415,1.353 L23.4415,2.193 L20.8855,2.946 L20.8855,20.648 C20.8855,22.265 21.0005,24.672 21.0235,24.974 L19.9755,24.974 Z" mask="url(#novartis-g)"/>
      </g>
    </g>
  </g>
</svg>
