<svg xmlns="http://www.w3.org/2000/svg" width="20" height="18" viewBox="0 0 20 18">
  <path id="Print_Outline" data-name="Print Outline" d="M19,8H18V3.8a.8.8,0,0,0-.8-.8H6.8a.8.8,0,0,0-.8.8V8H5a3,3,0,0,0-3,3v5.116A.884.884,0,0,0,2.884,17H6v3.208A.793.793,0,0,0,6.792,21H17.208A.793.793,0,0,0,18,20.208V17h3.116A.884.884,0,0,0,22,16.116V11A3,3,0,0,0,19,8ZM8.555,5h6.89A.556.556,0,0,1,16,5.555V8H8V5.555A.556.556,0,0,1,8.555,5ZM16,17v1.622a.378.378,0,0,1-.378.378H8.378A.378.378,0,0,1,8,18.622V15h8Zm2-2V13H6v2H4.533A.533.533,0,0,1,4,14.467V11a1,1,0,0,1,1-1H19a1,1,0,0,1,1,1v3.467a.533.533,0,0,1-.533.533Z" transform="translate(-2 -3)" fill="#1b75bb"/>
</svg>
