<svg xmlns="http://www.w3.org/2000/svg" width="257.33" height="30.02" viewBox="0 0 257.33 30.02">
  <title>Sandoz Logo</title>
  <g id="Layer_2" data-name="Layer 2">
    <g id="header_SANDOZ" data-name="header SANDOZ">
      <path d="M11.41,30A26.81,26.81,0,0,1,0,27l3.51-8c2.16,1.56,4.27,3.07,7.07,3.07.76,0,2.26-.16,2.26-1.33s-1.12-1.46-2.61-1.92c-3.32-1-8.61-1.93-8.61-8.95S7.11.05,13.48.05A17.43,17.43,0,0,1,23,3l-3.14,7.18S17.3,7.86,14.51,7.86c-1.6,0-2.57.45-2.57,1.44s1.58,1.39,2.53,1.69c3.32,1,8.76,2.13,8.76,9.14C23.23,27.3,17.9,30,11.41,30m31.15-.83-.82-3.59H34.07l-1,3.59H22.39L32.3.83H43.85l9.43,28.36ZM37.88,10,35.42,18.9h4.91ZM72.5,29.19,64,15.38V29.19H54.15V.83H64L72.5,14.74V.83h9.75V29.19Zm24-.08-3.26.08H85.46V.83H92.9l3.24,0c9.22,0,16.28,3.33,16.28,14.23,0,10.32-6.64,14-15.89,14m.3-19.78H95.65v11.4h1.18c3.51,0,5.35-1.77,5.35-5.51,0-3.47-1.77-5.89-5.35-5.89M128.89,30c-8.73,0-15.36-5.95-15.36-15,0-8.84,6.44-15,15.31-15s15.72,6,15.72,15-5.78,15-15.67,15M129,9.44c-3.21,0-5.18,2.31-5.18,5.56s2,5.59,5.18,5.59,5.25-2.23,5.25-5.59S132.16,9.44,129,9.44M159.88,20.7h10.54v8.49H143.23L155.4,9.33h-9.56V.83h26ZM185.5,9.61h-4.73l-1.23,3.5h-1.69l4.39-12h1.84l4.42,12h-1.81Zm-4.28-1.29h3.84L183.92,5c-.41-1.16-.73-2.55-.73-2.55h-.05s-.35,1.44-.74,2.55ZM195,1.1h1.73l4.92,7.52C202.21,9.51,203,11,203,11H203s-.12-1.56-.12-2.56V1.1h1.55v12h-1.71l-4.9-7.52c-.58-.9-1.37-2.37-1.37-2.37h0s.1,1.56.1,2.53v7.36H195Zm11.6,7.68a4.24,4.24,0,0,1,4.24-4.55c2.62,0,4.21,2,4.21,4.55s-1.59,4.57-4.21,4.57S206.58,11.32,206.58,8.78Zm6.92,0c0-1.87-.92-3.35-2.69-3.35s-2.7,1.48-2.7,3.35.92,3.34,2.7,3.34S213.5,10.66,213.5,8.78Zm2.34-4.34h1.6L219,9.12c.38,1.16.79,2.76.79,2.76h0s.37-1.6.75-2.76l1.55-4.68h1.55l-3.11,8.67h-1.66Zm8.63,6.38c0-2,1.48-2.46,3.73-2.73,1.27-.14,2.09-.36,2.09-1.24s-.66-1.52-1.85-1.52c-1.37,0-2,.65-2.08,1.68h-1.45c.06-1.47,1.17-2.78,3.51-2.78a4.18,4.18,0,0,1,2.1.47,2.53,2.53,0,0,1,1.16,2.36v4.05c0,.69.16,1.06.92.9h.07v1.05a2.73,2.73,0,0,1-.81.13,1.39,1.39,0,0,1-1.53-1.36h0a3.4,3.4,0,0,1-2.9,1.46C225.76,13.29,224.47,12.48,224.47,10.82Zm5.84-.91V8.49a5.81,5.81,0,0,1-1.9.62c-1.42.24-2.36.5-2.36,1.69s.86,1.39,1.73,1.39A2.37,2.37,0,0,0,230.31,9.91Zm3.9,3.2V4.44h1.49V6h.05a2.88,2.88,0,0,1,2.56-1.68,1.26,1.26,0,0,1,.55.1V5.85h-.05a1.67,1.67,0,0,0-.61-.08,2.48,2.48,0,0,0-2.49,2.63v4.71Zm9.23.06c-1.16,0-2-.48-2-1.76V5.61h-1.35V4.44h1.35V1.72H243V4.44h1.79V5.61H243v5.46c0,.63.34.81.88.81a3.07,3.07,0,0,0,.76-.11h.05V13A5.62,5.62,0,0,1,243.44,13.17ZM248.3,2a.92.92,0,0,1-1.84,0,.92.92,0,0,1,1.84,0Zm-1.67,2.43h1.5v8.67h-1.5Zm3.34,6h1.52c.18,1.26,1.15,1.68,2.39,1.68s2-.6,2-1.38c0-.95-.73-1.19-2.26-1.5-1.69-.35-3.22-.71-3.22-2.61,0-1.48,1.16-2.42,3.17-2.42,2.18,0,3.26,1,3.46,2.52h-1.5c-.13-.89-.75-1.39-2-1.39s-1.68.55-1.68,1.21c0,.9.84,1.08,2.31,1.37,1.73.34,3.21.73,3.21,2.74,0,1.76-1.45,2.67-3.48,2.67C251.46,13.37,250.1,12.24,250,10.48Zm-71.18,6.76h4.43c3.58,0,5.36,2.45,5.36,6.05s-1.87,5.95-5.47,5.95h-4.32Zm4.26,10.56c2.71,0,3.82-1.76,3.82-4.51s-1-4.62-3.73-4.62h-2.69V27.8Zm9.32-9.66a.92.92,0,1,1-.92-.92A.89.89,0,0,1,192.37,18.14Zm-1.66,2.44h1.5v8.66h-1.5Zm2.93,0h1.6l1.52,4.67c.37,1.17.79,2.76.79,2.76h0s.37-1.59.76-2.76l1.55-4.67h1.54l-3.11,8.66h-1.66Zm10.89-2.44a.92.92,0,1,1-.92-.92A.89.89,0,0,1,204.53,18.14Zm-1.66,2.44h1.5v8.66h-1.5Zm3.34,6h1.52c.17,1.26,1.14,1.68,2.38,1.68s2-.6,2-1.37c0-1-.73-1.2-2.26-1.5-1.7-.36-3.23-.71-3.23-2.62,0-1.48,1.16-2.42,3.18-2.42,2.18,0,3.26,1,3.45,2.52h-1.5c-.13-.89-.74-1.39-2-1.39s-1.68.55-1.68,1.21c0,.91.84,1.08,2.31,1.37,1.72.34,3.21.73,3.21,2.75,0,1.75-1.46,2.66-3.49,2.66C207.69,29.5,206.34,28.37,206.21,26.61Zm10.95-8.47a.92.92,0,1,1-.92-.92A.89.89,0,0,1,217.16,18.14Zm-1.66,2.44H217v8.66h-1.5Zm3.42,4.34a4.23,4.23,0,0,1,4.24-4.55c2.62,0,4.21,2,4.21,4.55s-1.59,4.56-4.21,4.56A4.24,4.24,0,0,1,218.92,24.92Zm6.92,0c0-1.88-.92-3.36-2.69-3.36s-2.7,1.48-2.7,3.36.92,3.33,2.7,3.33S225.84,26.79,225.84,24.92Zm4.95,4.32h-1.5V20.58h1.49V21.8h.05a3.18,3.18,0,0,1,2.74-1.43,2.63,2.63,0,0,1,2.92,2.82v6H235V23.37a1.67,1.67,0,0,0-1.9-1.74A2.23,2.23,0,0,0,230.79,24Z" fill="#0661aa"/>
    </g>
  </g>
</svg>
