<svg xmlns="http://www.w3.org/2000/svg" width="21.5" height="21.5" viewBox="0 0 21.5 21.5">
  <title>web link icon</title>
  <g id="Layer_2" data-name="Layer 2">
    <g id="detail">
      <g id="web_link_icon" data-name="web link icon">
        <path d="M10.75,0A10.75,10.75,0,1,0,21.5,10.75,10.76,10.76,0,0,0,10.75,0ZM20,10.25H16a20.39,20.39,0,0,0-.52-4.16,13.18,13.18,0,0,0,2.46-1.16A9.16,9.16,0,0,1,20,10.25Zm-8.18,9.69c-.18,0-.36,0-.54,0V15.84a13.07,13.07,0,0,1,2.92.45A6.6,6.6,0,0,1,11.79,19.94Zm3.35-3.35a11.78,11.78,0,0,1,1.95.88,9.3,9.3,0,0,1-3.42,2.05A10.28,10.28,0,0,0,15.14,16.59Zm-7.81-.3a12.52,12.52,0,0,1,2.92-.45V20c-.18,0-.36,0-.54,0A6.6,6.6,0,0,1,7.33,16.29Zm.5,3.23a9.19,9.19,0,0,1-3.42-2.06,12.82,12.82,0,0,1,2-.87A10.16,10.16,0,0,0,7.83,19.52Zm1.88-18c.18,0,.36,0,.54,0V5.89a13.58,13.58,0,0,1-3-.47A6.77,6.77,0,0,1,9.71,1.56ZM6.3,5.12a12.94,12.94,0,0,1-2-1A9.29,9.29,0,0,1,7.83,2,10.1,10.1,0,0,0,6.3,5.12Zm7.94.3a13.58,13.58,0,0,1-3,.47V1.53c.18,0,.36,0,.54,0A6.77,6.77,0,0,1,14.24,5.42ZM13.67,2a9.29,9.29,0,0,1,3.58,2.19,12.52,12.52,0,0,1-2.05,1A10.1,10.1,0,0,0,13.67,2ZM10.25,6.89v3.36H6.51A19.12,19.12,0,0,1,7,6.39,14.69,14.69,0,0,0,10.25,6.89Zm0,4.36v3.59a14.18,14.18,0,0,0-3.2.48,18.81,18.81,0,0,1-.54-4.07Zm1,3.59V11.25H15a18.81,18.81,0,0,1-.54,4.07A14.18,14.18,0,0,0,11.25,14.84Zm0-4.59V6.89a14.69,14.69,0,0,0,3.26-.5A19.12,19.12,0,0,1,15,10.25ZM3.57,4.93A13.18,13.18,0,0,0,6,6.09a20.39,20.39,0,0,0-.52,4.16h-4A9.16,9.16,0,0,1,3.57,4.93Zm-2,6.32h4a20.1,20.1,0,0,0,.57,4.37,13.18,13.18,0,0,0-2.38,1.1A9.15,9.15,0,0,1,1.53,11.25ZM17.8,16.72a13.18,13.18,0,0,0-2.38-1.1A20.1,20.1,0,0,0,16,11.25h4A9.15,9.15,0,0,1,17.8,16.72Z" fill="#0661aa"/>
      </g>
    </g>
  </g>
</svg>
